<svg width="21" height="20" viewBox="0 0 21 20" fill="none" xmlns="http://www.w3.org/2000/svg">
<g clip-path="url(#clip0_2_26)">
<path d="M11.8198 19.8698C11.735 19.8834 11.6498 19.8959 11.5644 19.9074C11.6498 19.8959 11.735 19.8834 11.8198 19.8698Z" fill="white"/>
<path d="M12.0234 19.8357C11.9828 19.843 11.9423 19.8497 11.9018 19.8566C11.9423 19.8497 11.9828 19.843 12.0234 19.8357Z" fill="white"/>
<path d="M11.3371 19.9352C11.2378 19.9461 11.1379 19.9559 11.0378 19.9641C11.1379 19.9559 11.2378 19.9461 11.3371 19.9352Z" fill="white"/>
<path d="M11.5326 19.9117C11.4849 19.9179 11.4369 19.9237 11.3891 19.9292C11.4369 19.9237 11.4849 19.9179 11.5326 19.9117Z" fill="white"/>
<path d="M12.3005 19.7816C12.2647 19.7891 12.2289 19.7966 12.193 19.8038C12.2289 19.7966 12.2647 19.7891 12.3005 19.7816Z" fill="white"/>
<path d="M12.9882 19.6138C12.9593 19.6219 12.9304 19.6295 12.9015 19.6375C12.9304 19.6295 12.9593 19.6219 12.9882 19.6138Z" fill="white"/>
<path d="M12.7802 19.6696C12.7488 19.6777 12.7173 19.686 12.6858 19.6938C12.7173 19.686 12.7488 19.6779 12.7802 19.6696Z" fill="white"/>
<path d="M12.5081 19.7365C12.4749 19.7441 12.4413 19.7513 12.4078 19.7586C12.4413 19.7513 12.4749 19.7441 12.5081 19.7365Z" fill="white"/>
<path d="M11.0345 19.9644C10.9809 19.9689 10.9273 19.9728 10.8736 19.9763C10.9273 19.9728 10.9809 19.9689 11.0345 19.9644Z" fill="white"/>
<path d="M20.3571 10C20.3571 4.478 15.7992 0 10.1786 0C4.55796 0 0 4.478 0 10C0 15.522 4.55796 20 10.1786 20C10.2384 20 10.2979 19.9988 10.3575 19.9977V12.2131H8.17069V9.70932H10.3575V7.86682C10.3575 5.72998 11.6853 4.56696 13.6254 4.56696C14.5545 4.56696 15.3531 4.63501 15.5859 4.66537V6.89865H14.2481C13.1926 6.89865 12.9882 7.39151 12.9882 8.11462V9.70932H15.512L15.1831 12.2131H12.9882V19.6136C17.2427 18.4154 20.3571 14.5645 20.3571 10Z" fill="white"/>
<path d="M10.8511 19.9777C10.7452 19.9844 10.6388 19.9898 10.5321 19.9933C10.6388 19.9898 10.7452 19.9844 10.8511 19.9777Z" fill="white"/>
<path d="M10.5266 19.9936C10.4704 19.9955 10.414 19.9969 10.3577 19.9979C10.414 19.9969 10.4704 19.9955 10.5266 19.9936Z" fill="white"/>
</g>
<defs>
<clipPath id="clip0_2_26">
<rect width="20.3571" height="20" fill="white"/>
</clipPath>
</defs>
</svg>
