<svg width="21" height="20" viewBox="0 0 21 20" fill="none" xmlns="http://www.w3.org/2000/svg">
<g clip-path="url(#clip0_2_19)">
<path d="M8.91075 11.8735L12.2217 10L8.91075 8.12653V11.8735Z" fill="white"/>
<path d="M10.1786 0C4.55796 0 0 4.478 0 10C0 15.522 4.55796 20 10.1786 20C15.7992 20 20.3571 15.522 20.3571 10C20.3571 4.478 15.7992 0 10.1786 0ZM16.5386 10.0102C16.5386 10.0102 16.5386 12.0383 16.2768 13.0162C16.13 13.5515 15.7004 13.9735 15.1556 14.1176C14.1602 14.375 10.1786 14.375 10.1786 14.375C10.1786 14.375 6.20738 14.375 5.20158 14.1074C4.65674 13.9633 4.22715 13.5411 4.08037 13.0058C3.81836 12.0383 3.81836 10 3.81836 10C3.81836 10 3.81836 7.97211 4.08037 6.99417C4.22699 6.45889 4.66715 6.02646 5.20158 5.88242C6.19698 5.625 10.1786 5.625 10.1786 5.625C10.1786 5.625 14.1602 5.625 15.1556 5.89264C15.7004 6.03668 16.13 6.45889 16.2768 6.99417C16.5492 7.97211 16.5386 10.0102 16.5386 10.0102Z" fill="white"/>
</g>
<defs>
<clipPath id="clip0_2_19">
<rect width="20.3571" height="20" fill="white"/>
</clipPath>
</defs>
</svg>
